<svg width="92" height="92" viewBox="0 0 46 23" fill="none" xmlns="http://www.w3.org/2000/svg">
<path d="M13.184 23C12.4373 23 11.8187 22.808 11.328 22.424C10.8587 22.0187 10.5387 21.5173 10.368 20.92C10.1973 20.3227 10.0907 19.6613 10.048 18.936C10.0053 18.1893 9.984 17.4427 9.984 16.696C10.0053 15.928 10.0053 15.224 9.984 14.584C9.96267 13.944 9.89867 13.432 9.792 13.048C9.68533 12.664 9.48267 12.472 9.184 12.472C8.75733 12.472 8.45867 12.6533 8.288 13.016C8.11733 13.3573 8.032 13.8267 8.032 14.424C8.032 15 8.064 15.6293 8.128 16.312C8.21333 16.9947 8.29867 17.6773 8.384 18.36C8.46933 19.0213 8.512 19.608 8.512 20.12C8.512 21.1867 8.26667 21.9227 7.776 22.328C7.30667 22.7333 6.656 22.936 5.824 22.936C4.992 22.936 4.256 22.5947 3.616 21.912C2.99733 21.208 2.47467 20.312 2.048 19.224C1.64267 18.1147 1.33333 16.92 1.12 15.64C0.906667 14.36 0.8 13.144 0.8 11.992C0.8 10.584 0.949333 9.21867 1.248 7.896C1.568 6.57333 2.03733 5.38933 2.656 4.344C3.296 3.29867 4.08533 2.46667 5.024 1.848C5.96267 1.22933 7.072 0.919998 8.352 0.919998C9.35467 0.919998 10.1867 1.144 10.848 1.592C11.5093 2.01867 12.032 2.56267 12.416 3.224C12.8213 3.88533 13.0987 4.55733 13.248 5.24C13.3973 4.55733 13.664 3.88533 14.048 3.224C14.432 2.56267 14.9547 2.01867 15.616 1.592C16.2773 1.144 17.0987 0.919998 18.08 0.919998C19.7013 0.919998 21.0773 1.42133 22.208 2.424C23.36 3.42667 24.2347 4.81333 24.832 6.584C25.4293 8.33333 25.728 10.3707 25.728 12.696C25.728 13.784 25.6107 14.936 25.376 16.152C25.1413 17.3467 24.8 18.4667 24.352 19.512C23.9253 20.536 23.4027 21.3787 22.784 22.04C22.1653 22.68 21.4613 23 20.672 23C19.8187 23 19.1467 22.7867 18.656 22.36C18.1653 21.9333 17.92 21.1867 17.92 20.12C17.92 19.608 17.9627 19.0213 18.048 18.36C18.1333 17.6773 18.2187 16.9947 18.304 16.312C18.3893 15.6293 18.432 15 18.432 14.424C18.432 13.8267 18.3467 13.3573 18.176 13.016C18.0267 12.6533 17.7387 12.472 17.312 12.472C17.0133 12.472 16.8 12.664 16.672 13.048C16.5653 13.432 16.4907 13.944 16.448 14.584C16.4267 15.2027 16.416 15.896 16.416 16.664C16.416 17.4107 16.3947 18.1573 16.352 18.904C16.3307 19.6507 16.2347 20.3227 16.064 20.92C15.9147 21.5173 15.5947 22.0187 15.104 22.424C14.6133 22.808 13.9733 23 13.184 23ZM36.2273 23C34.1579 23 32.3553 22.5733 30.8193 21.72C29.3046 20.8667 28.3019 19.5227 27.8113 17.688C27.5979 16.8773 27.4593 15.896 27.3953 14.744C27.3526 13.5707 27.3313 12.3333 27.3313 11.032C27.3313 9.752 27.3846 8.49333 27.4913 7.256C27.6193 6.01867 27.8539 4.89867 28.1953 3.896C28.5366 2.89333 29.0486 2.09333 29.7313 1.496C30.4353 0.898665 31.3633 0.599998 32.5153 0.599998C33.4113 0.599998 34.1579 0.813332 34.7552 1.24C35.3739 1.66667 35.8433 2.232 36.1633 2.936C36.4833 3.64 36.6433 4.41867 36.6433 5.272C36.6433 6.872 36.4939 8.58933 36.1953 10.424C35.8966 12.2587 35.5979 13.9867 35.2993 15.608C35.9819 15.3947 36.7606 15.2347 37.6353 15.128C38.5313 15 39.4273 14.9573 40.3233 15C41.2406 15.0213 42.0833 15.1707 42.8513 15.448C43.6193 15.704 44.2379 16.1093 44.7073 16.664C45.1766 17.1973 45.4113 17.9013 45.4113 18.776C45.4113 19.8213 45.1446 20.6427 44.6112 21.24C44.0779 21.816 43.3633 22.232 42.4673 22.488C41.5713 22.7227 40.5793 22.872 39.4913 22.936C38.4033 22.9787 37.3153 23 36.2273 23Z" fill="#017AFF"/>
</svg>
