<?xml version="1.0" standalone="no"?>
<svg id="Vector" width="201" height="39" viewBox="0 0 201 39" fill="none" xmlns="http://www.w3.org/2000/svg" style="max-width: 100%; max-height: 100%;">
<mask id="path-1-inside-1_13_8" fill="white">
<path d="M7.59201 3.24C8.20001 3.24 9.38402 3.896 11.144 5.208C12.936 6.488 13.832 7.448 13.832 8.088C13.832 9.208 14.2 11.048 14.936 13.608C15.672 16.168 16.52 18.488 17.48 20.568C18.44 19.448 20.056 17.384 22.328 14.376C24.632 11.336 26.568 8.936 28.136 7.176C29.704 5.416 30.872 4.536 31.64 4.536C32.408 4.536 33.208 4.968 34.04 5.832C34.872 6.696 35.288 7.56 35.288 8.424C35.288 9.288 35.16 10.408 34.904 11.784C34.648 13.128 34.36 14.392 34.04 15.576C33.752 16.728 33.32 18.312 32.744 20.328C32.2 22.344 31.768 23.944 31.448 25.128C31.16 26.28 30.856 27.528 30.536 28.872C30.216 30.184 29.96 31.224 29.768 31.992C29.608 32.728 29.416 33.512 29.192 34.344C29 35.144 28.824 35.768 28.664 36.216C28.504 36.632 28.328 37.016 28.136 37.368C27.784 38.04 27.288 38.376 26.648 38.376C26.008 38.376 25.368 37.752 24.728 36.504C24.12 35.224 23.816 33.896 23.816 32.52C23.816 29.128 24.792 24.632 26.744 19.032C26.2 19.736 25.416 20.776 24.392 22.152C23.368 23.496 22.6 24.488 22.088 25.128C21.608 25.736 21 26.456 20.264 27.288C18.952 28.728 17.672 29.448 16.424 29.448C14.76 29.448 13.576 28.792 12.872 27.48C12.52 26.808 12.04 25.304 11.432 22.968C10.856 20.6 10.44 18.968 10.184 18.072C9.76802 21.368 9.20801 24.36 8.50401 27.048C7.80001 29.736 7.33601 31.496 7.11201 32.328C6.88801 33.16 6.58401 34.168 6.20001 35.352C5.56001 37.368 4.98401 38.376 4.47201 38.376C3.89601 38.376 3.09601 37.624 2.07201 36.12C1.08001 34.584 0.584015 33.384 0.584015 32.52C0.584015 31.656 1.51201 27.336 3.36801 19.56C5.25601 11.784 6.20001 6.872 6.20001 4.824C6.20001 3.768 6.66401 3.24 7.59201 3.24ZM43.2493 33.528C44.9773 32.76 46.4813 31.208 47.7613 28.872C49.0413 26.536 49.6813 24.344 49.6813 22.296C49.6813 20.248 49.3933 18.84 48.8173 18.072C47.4413 18.872 46.0653 20.552 44.6893 23.112C43.3453 25.672 42.6733 27.928 42.6733 29.88C42.6733 31.8 42.8653 33.016 43.2493 33.528ZM36.2413 30.36C36.2413 26.36 37.4733 22.568 39.9373 18.984C42.4333 15.4 44.8973 13.608 47.3293 13.608C49.7613 13.608 51.8093 14.472 53.4733 16.2C55.1373 17.896 55.9693 19.96 55.9693 22.392C55.9693 24.792 55.3933 27.24 54.2413 29.736C53.0893 32.232 51.4733 34.312 49.3932 35.976C47.3133 37.608 45.0893 38.424 42.7213 38.424C40.9613 38.424 39.4413 37.64 38.1613 36.072C36.8813 34.504 36.2413 32.6 36.2413 30.36ZM75.1719 13.656C76.0039 13.656 76.8039 13.96 77.5719 14.568C78.3719 15.144 78.7719 15.752 78.7719 16.392C78.7719 17.544 77.8119 20.216 75.8919 24.408C74.0039 28.6 72.2439 31.976 70.6119 34.536C69.0119 37.096 67.7639 38.376 66.8679 38.376C66.3879 38.376 65.6839 38.056 64.7559 37.416C63.8599 36.776 63.2839 36.136 63.0279 35.496C62.2599 33.64 61.3319 30.216 60.2439 25.224C59.1559 20.2 58.6119 17.016 58.6119 15.672C58.6119 14.328 59.0599 13.656 59.9559 13.656C61.0439 13.656 62.1639 14.088 63.3159 14.952C65.2359 16.424 66.3079 18.392 66.5319 20.856C66.6279 22.008 66.7079 23.432 66.7719 25.128C66.8359 26.792 66.9799 28.232 67.2039 29.448C67.9719 27.976 68.9159 25.8 70.0359 22.92C71.1559 20.008 72.1159 17.736 72.9159 16.104C73.7479 14.472 74.4999 13.656 75.1719 13.656ZM83.3259 7.656C83.3259 6.824 83.6939 5.976 84.4299 5.112C85.1979 4.216 85.9339 3.768 86.6379 3.768C87.3739 3.768 88.2379 4.632 89.2299 6.36C90.2219 8.088 90.7179 9.352 90.7179 10.152C90.7179 10.92 90.4619 11.512 89.9499 11.928C89.4379 12.344 88.9099 12.552 88.3659 12.552C87.4379 12.552 86.3659 11.944 85.1499 10.728C83.9339 9.512 83.3259 8.488 83.3259 7.656ZM84.0459 13.656C85.1659 13.656 86.1579 14.296 87.0219 15.576C87.9179 16.856 88.3659 18.088 88.3659 19.272C88.3659 19.88 87.8059 22.072 86.6859 25.848C85.5979 29.592 84.5099 33.144 83.4219 36.504C83.0379 37.752 82.2539 38.376 81.0699 38.376C80.3659 38.376 79.7419 38.12 79.1979 37.608C78.6859 37.064 78.4299 36.376 78.4299 35.544C78.4299 34.68 78.8299 32.568 79.6299 29.208C80.4619 25.816 81.0859 22.936 81.5019 20.568C81.9499 18.168 82.3499 16.424 82.7019 15.336C83.0859 14.216 83.5339 13.656 84.0459 13.656ZM112.595 22.632C112.595 24.2 111.523 25.608 109.379 26.856C107.267 28.104 105.091 28.728 102.851 28.728C100.611 28.728 98.7706 28.568 97.3306 28.248C97.0426 29.112 96.8986 29.976 96.8986 30.84C96.8986 31.704 97.0426 32.328 97.3306 32.712C97.6186 33.064 98.3386 33.24 99.4906 33.24C101.891 33.24 103.939 33.016 105.635 32.568C107.363 32.12 108.259 31.896 108.323 31.896C109.635 31.896 110.291 32.328 110.291 33.192C110.291 34.44 109.251 35.624 107.171 36.744C105.123 37.864 102.739 38.424 100.019 38.424C97.3306 38.424 95.1706 37.576 93.5386 35.88C91.9066 34.184 91.0906 32.184 91.0906 29.88C91.0906 27.544 91.7626 25.112 93.1066 22.584C94.4826 20.056 96.1946 17.944 98.2426 16.248C100.291 14.52 102.323 13.656 104.339 13.656C106.387 13.656 108.275 14.664 110.003 16.68C111.731 18.664 112.595 20.648 112.595 22.632ZM107.027 21.864C107.027 21.544 106.691 21.08 106.019 20.472C105.347 19.864 104.707 19.56 104.099 19.56C103.523 19.56 102.771 19.992 101.843 20.856C100.915 21.688 100.035 22.776 99.2026 24.12C99.4906 24.152 99.9066 24.168 100.451 24.168C104.835 24.168 107.027 23.4 107.027 21.864ZM129.84 13.704C131.056 13.704 132.256 14.424 133.44 15.864C134.624 17.304 135.216 18.6 135.216 19.752C135.216 20.52 134.88 20.904 134.208 20.904C133.824 20.904 133.264 20.76 132.528 20.472C131.792 20.152 131.04 19.992 130.272 19.992C129.536 19.992 128.432 20.248 126.96 20.76C125.52 21.272 124.8 21.944 124.8 22.776C124.8 23.096 125.232 23.56 126.096 24.168C126.96 24.776 127.904 25.4 128.928 26.04C129.952 26.68 130.896 27.576 131.76 28.728C132.624 29.848 133.056 31.08 133.056 32.424C133.056 33.736 132.08 35.064 130.128 36.408C128.208 37.752 125.936 38.424 123.312 38.424C120.72 38.424 118.496 37.832 116.64 36.648C114.784 35.464 113.856 34.248 113.856 33C113.856 31.752 114.368 31.128 115.392 31.128C115.808 31.128 116.304 31.288 116.88 31.608C118.48 32.536 120.464 33 122.832 33C125.232 33 126.432 32.68 126.432 32.04C126.432 31.4 125.968 30.696 125.04 29.928C124.144 29.128 123.152 28.392 122.064 27.72C121.008 27.048 120.016 26.232 119.088 25.272C118.192 24.28 117.744 23.32 117.744 22.392C117.744 20.664 119.312 18.792 122.448 16.776C125.584 14.728 128.048 13.704 129.84 13.704ZM146.198 2.52C146.998 2.52 147.974 3.048 149.126 4.104C150.278 5.16 150.854 6.248 150.854 7.368C150.854 10.44 149.27 16.392 146.102 25.224C145.014 28.328 144.47 30.488 144.47 31.704C144.47 31.864 144.502 31.96 144.566 31.992C144.63 32.024 145.222 32.04 146.342 32.04C147.462 32.04 148.998 31.88 150.95 31.56C152.934 31.208 154.534 30.872 155.75 30.552C156.998 30.232 157.734 30.072 157.958 30.072C158.758 30.072 159.158 30.584 159.158 31.608C159.158 33.624 157.622 35.256 154.55 36.504C151.51 37.72 147.974 38.328 143.942 38.328C142.374 38.328 140.934 37.752 139.622 36.6C138.342 35.416 137.702 34.12 137.702 32.712C137.702 31.304 138.886 26.76 141.254 19.08C143.622 11.368 144.806 6.376 144.806 4.104C144.806 3.048 145.27 2.52 146.198 2.52ZM167.842 7.656C167.842 6.824 168.21 5.976 168.946 5.112C169.714 4.216 170.45 3.768 171.154 3.768C171.89 3.768 172.754 4.632 173.746 6.36C174.738 8.088 175.234 9.352 175.234 10.152C175.234 10.92 174.978 11.512 174.466 11.928C173.954 12.344 173.426 12.552 172.882 12.552C171.954 12.552 170.882 11.944 169.666 10.728C168.45 9.512 167.842 8.488 167.842 7.656ZM168.562 13.656C169.682 13.656 170.674 14.296 171.538 15.576C172.434 16.856 172.882 18.088 172.882 19.272C172.882 19.88 172.322 22.072 171.202 25.848C170.114 29.592 169.026 33.144 167.938 36.504C167.554 37.752 166.77 38.376 165.586 38.376C164.882 38.376 164.258 38.12 163.714 37.608C163.202 37.064 162.946 36.376 162.946 35.544C162.946 34.68 163.346 32.568 164.146 29.208C164.978 25.816 165.602 22.936 166.018 20.568C166.466 18.168 166.866 16.424 167.218 15.336C167.602 14.216 168.05 13.656 168.562 13.656ZM194.23 13.704C195.702 13.704 197.094 14.52 198.406 16.152C199.75 17.784 200.422 19.336 200.422 20.808C200.422 22.28 200.086 24.008 199.414 25.992C198.742 27.976 197.846 29.896 196.726 31.752C195.606 33.608 194.198 35.176 192.502 36.456C190.806 37.736 189.03 38.376 187.174 38.376C185.35 38.376 183.27 37.496 180.934 35.736C180.294 37.528 179.766 38.424 179.35 38.424C178.678 38.424 177.83 37.864 176.806 36.744C175.782 35.624 175.27 34.712 175.27 34.008C175.27 33.304 175.798 31 176.854 27.096C180.022 15.384 181.606 6.904 181.606 1.656C181.606 0.695995 182.07 0.215996 182.998 0.215996C183.734 0.215996 184.726 0.919995 185.974 2.328C187.222 3.704 187.846 5 187.846 6.216C187.846 9.064 187.03 13.496 185.398 19.512C189.046 15.64 191.99 13.704 194.23 13.704ZM186.454 32.856C188.214 32.856 190.006 31.48 191.83 28.728C193.686 25.976 194.614 23.272 194.614 20.616C194.614 20.424 194.566 20.312 194.47 20.28C194.406 20.216 194.198 20.184 193.846 20.184C192.086 20.184 190.198 21.24 188.182 23.352C186.198 25.464 184.438 28.104 182.902 31.272C184.246 32.328 185.43 32.856 186.454 32.856Z" stroke-dasharray="0,0,0,1034.9874267578125"><animate attributeType="XML" attributeName="stroke-dasharray" repeatCount="1" dur="3.5714285714285716s" values="0,0,0,1034.9874267578125; 
          0,517.4937133789062,517.4937133789062,0; 
          1034.9874267578125,0,0,0" keyTimes="0; 0.5; 1" fill="freeze"></animate></path>
</mask>
<path d="M7.59201 3.24C8.20001 3.24 9.38402 3.896 11.144 5.208C12.936 6.488 13.832 7.448 13.832 8.088C13.832 9.208 14.2 11.048 14.936 13.608C15.672 16.168 16.52 18.488 17.48 20.568C18.44 19.448 20.056 17.384 22.328 14.376C24.632 11.336 26.568 8.936 28.136 7.176C29.704 5.416 30.872 4.536 31.64 4.536C32.408 4.536 33.208 4.968 34.04 5.832C34.872 6.696 35.288 7.56 35.288 8.424C35.288 9.288 35.16 10.408 34.904 11.784C34.648 13.128 34.36 14.392 34.04 15.576C33.752 16.728 33.32 18.312 32.744 20.328C32.2 22.344 31.768 23.944 31.448 25.128C31.16 26.28 30.856 27.528 30.536 28.872C30.216 30.184 29.96 31.224 29.768 31.992C29.608 32.728 29.416 33.512 29.192 34.344C29 35.144 28.824 35.768 28.664 36.216C28.504 36.632 28.328 37.016 28.136 37.368C27.784 38.04 27.288 38.376 26.648 38.376C26.008 38.376 25.368 37.752 24.728 36.504C24.12 35.224 23.816 33.896 23.816 32.52C23.816 29.128 24.792 24.632 26.744 19.032C26.2 19.736 25.416 20.776 24.392 22.152C23.368 23.496 22.6 24.488 22.088 25.128C21.608 25.736 21 26.456 20.264 27.288C18.952 28.728 17.672 29.448 16.424 29.448C14.76 29.448 13.576 28.792 12.872 27.48C12.52 26.808 12.04 25.304 11.432 22.968C10.856 20.6 10.44 18.968 10.184 18.072C9.76802 21.368 9.20801 24.36 8.50401 27.048C7.80001 29.736 7.33601 31.496 7.11201 32.328C6.88801 33.16 6.58401 34.168 6.20001 35.352C5.56001 37.368 4.98401 38.376 4.47201 38.376C3.89601 38.376 3.09601 37.624 2.07201 36.12C1.08001 34.584 0.584015 33.384 0.584015 32.52C0.584015 31.656 1.51201 27.336 3.36801 19.56C5.25601 11.784 6.20001 6.872 6.20001 4.824C6.20001 3.768 6.66401 3.24 7.59201 3.24ZM43.2493 33.528C44.9773 32.76 46.4813 31.208 47.7613 28.872C49.0413 26.536 49.6813 24.344 49.6813 22.296C49.6813 20.248 49.3933 18.84 48.8173 18.072C47.4413 18.872 46.0653 20.552 44.6893 23.112C43.3453 25.672 42.6733 27.928 42.6733 29.88C42.6733 31.8 42.8653 33.016 43.2493 33.528ZM36.2413 30.36C36.2413 26.36 37.4733 22.568 39.9373 18.984C42.4333 15.4 44.8973 13.608 47.3293 13.608C49.7613 13.608 51.8093 14.472 53.4733 16.2C55.1373 17.896 55.9693 19.96 55.9693 22.392C55.9693 24.792 55.3933 27.24 54.2413 29.736C53.0893 32.232 51.4733 34.312 49.3932 35.976C47.3133 37.608 45.0893 38.424 42.7213 38.424C40.9613 38.424 39.4413 37.64 38.1613 36.072C36.8813 34.504 36.2413 32.6 36.2413 30.36ZM75.1719 13.656C76.0039 13.656 76.8039 13.96 77.5719 14.568C78.3719 15.144 78.7719 15.752 78.7719 16.392C78.7719 17.544 77.8119 20.216 75.8919 24.408C74.0039 28.6 72.2439 31.976 70.6119 34.536C69.0119 37.096 67.7639 38.376 66.8679 38.376C66.3879 38.376 65.6839 38.056 64.7559 37.416C63.8599 36.776 63.2839 36.136 63.0279 35.496C62.2599 33.64 61.3319 30.216 60.2439 25.224C59.1559 20.2 58.6119 17.016 58.6119 15.672C58.6119 14.328 59.0599 13.656 59.9559 13.656C61.0439 13.656 62.1639 14.088 63.3159 14.952C65.2359 16.424 66.3079 18.392 66.5319 20.856C66.6279 22.008 66.7079 23.432 66.7719 25.128C66.8359 26.792 66.9799 28.232 67.2039 29.448C67.9719 27.976 68.9159 25.8 70.0359 22.92C71.1559 20.008 72.1159 17.736 72.9159 16.104C73.7479 14.472 74.4999 13.656 75.1719 13.656ZM83.3259 7.656C83.3259 6.824 83.6939 5.976 84.4299 5.112C85.1979 4.216 85.9339 3.768 86.6379 3.768C87.3739 3.768 88.2379 4.632 89.2299 6.36C90.2219 8.088 90.7179 9.352 90.7179 10.152C90.7179 10.92 90.4619 11.512 89.9499 11.928C89.4379 12.344 88.9099 12.552 88.3659 12.552C87.4379 12.552 86.3659 11.944 85.1499 10.728C83.9339 9.512 83.3259 8.488 83.3259 7.656ZM84.0459 13.656C85.1659 13.656 86.1579 14.296 87.0219 15.576C87.9179 16.856 88.3659 18.088 88.3659 19.272C88.3659 19.88 87.8059 22.072 86.6859 25.848C85.5979 29.592 84.5099 33.144 83.4219 36.504C83.0379 37.752 82.2539 38.376 81.0699 38.376C80.3659 38.376 79.7419 38.12 79.1979 37.608C78.6859 37.064 78.4299 36.376 78.4299 35.544C78.4299 34.68 78.8299 32.568 79.6299 29.208C80.4619 25.816 81.0859 22.936 81.5019 20.568C81.9499 18.168 82.3499 16.424 82.7019 15.336C83.0859 14.216 83.5339 13.656 84.0459 13.656ZM112.595 22.632C112.595 24.2 111.523 25.608 109.379 26.856C107.267 28.104 105.091 28.728 102.851 28.728C100.611 28.728 98.7706 28.568 97.3306 28.248C97.0426 29.112 96.8986 29.976 96.8986 30.84C96.8986 31.704 97.0426 32.328 97.3306 32.712C97.6186 33.064 98.3386 33.24 99.4906 33.24C101.891 33.24 103.939 33.016 105.635 32.568C107.363 32.12 108.259 31.896 108.323 31.896C109.635 31.896 110.291 32.328 110.291 33.192C110.291 34.44 109.251 35.624 107.171 36.744C105.123 37.864 102.739 38.424 100.019 38.424C97.3306 38.424 95.1706 37.576 93.5386 35.88C91.9066 34.184 91.0906 32.184 91.0906 29.88C91.0906 27.544 91.7626 25.112 93.1066 22.584C94.4826 20.056 96.1946 17.944 98.2426 16.248C100.291 14.52 102.323 13.656 104.339 13.656C106.387 13.656 108.275 14.664 110.003 16.68C111.731 18.664 112.595 20.648 112.595 22.632ZM107.027 21.864C107.027 21.544 106.691 21.08 106.019 20.472C105.347 19.864 104.707 19.56 104.099 19.56C103.523 19.56 102.771 19.992 101.843 20.856C100.915 21.688 100.035 22.776 99.2026 24.12C99.4906 24.152 99.9066 24.168 100.451 24.168C104.835 24.168 107.027 23.4 107.027 21.864ZM129.84 13.704C131.056 13.704 132.256 14.424 133.44 15.864C134.624 17.304 135.216 18.6 135.216 19.752C135.216 20.52 134.88 20.904 134.208 20.904C133.824 20.904 133.264 20.76 132.528 20.472C131.792 20.152 131.04 19.992 130.272 19.992C129.536 19.992 128.432 20.248 126.96 20.76C125.52 21.272 124.8 21.944 124.8 22.776C124.8 23.096 125.232 23.56 126.096 24.168C126.96 24.776 127.904 25.4 128.928 26.04C129.952 26.68 130.896 27.576 131.76 28.728C132.624 29.848 133.056 31.08 133.056 32.424C133.056 33.736 132.08 35.064 130.128 36.408C128.208 37.752 125.936 38.424 123.312 38.424C120.72 38.424 118.496 37.832 116.64 36.648C114.784 35.464 113.856 34.248 113.856 33C113.856 31.752 114.368 31.128 115.392 31.128C115.808 31.128 116.304 31.288 116.88 31.608C118.48 32.536 120.464 33 122.832 33C125.232 33 126.432 32.68 126.432 32.04C126.432 31.4 125.968 30.696 125.04 29.928C124.144 29.128 123.152 28.392 122.064 27.72C121.008 27.048 120.016 26.232 119.088 25.272C118.192 24.28 117.744 23.32 117.744 22.392C117.744 20.664 119.312 18.792 122.448 16.776C125.584 14.728 128.048 13.704 129.84 13.704ZM146.198 2.52C146.998 2.52 147.974 3.048 149.126 4.104C150.278 5.16 150.854 6.248 150.854 7.368C150.854 10.44 149.27 16.392 146.102 25.224C145.014 28.328 144.47 30.488 144.47 31.704C144.47 31.864 144.502 31.96 144.566 31.992C144.63 32.024 145.222 32.04 146.342 32.04C147.462 32.04 148.998 31.88 150.95 31.56C152.934 31.208 154.534 30.872 155.75 30.552C156.998 30.232 157.734 30.072 157.958 30.072C158.758 30.072 159.158 30.584 159.158 31.608C159.158 33.624 157.622 35.256 154.55 36.504C151.51 37.72 147.974 38.328 143.942 38.328C142.374 38.328 140.934 37.752 139.622 36.6C138.342 35.416 137.702 34.12 137.702 32.712C137.702 31.304 138.886 26.76 141.254 19.08C143.622 11.368 144.806 6.376 144.806 4.104C144.806 3.048 145.27 2.52 146.198 2.52ZM167.842 7.656C167.842 6.824 168.21 5.976 168.946 5.112C169.714 4.216 170.45 3.768 171.154 3.768C171.89 3.768 172.754 4.632 173.746 6.36C174.738 8.088 175.234 9.352 175.234 10.152C175.234 10.92 174.978 11.512 174.466 11.928C173.954 12.344 173.426 12.552 172.882 12.552C171.954 12.552 170.882 11.944 169.666 10.728C168.45 9.512 167.842 8.488 167.842 7.656ZM168.562 13.656C169.682 13.656 170.674 14.296 171.538 15.576C172.434 16.856 172.882 18.088 172.882 19.272C172.882 19.88 172.322 22.072 171.202 25.848C170.114 29.592 169.026 33.144 167.938 36.504C167.554 37.752 166.77 38.376 165.586 38.376C164.882 38.376 164.258 38.12 163.714 37.608C163.202 37.064 162.946 36.376 162.946 35.544C162.946 34.68 163.346 32.568 164.146 29.208C164.978 25.816 165.602 22.936 166.018 20.568C166.466 18.168 166.866 16.424 167.218 15.336C167.602 14.216 168.05 13.656 168.562 13.656ZM194.23 13.704C195.702 13.704 197.094 14.52 198.406 16.152C199.75 17.784 200.422 19.336 200.422 20.808C200.422 22.28 200.086 24.008 199.414 25.992C198.742 27.976 197.846 29.896 196.726 31.752C195.606 33.608 194.198 35.176 192.502 36.456C190.806 37.736 189.03 38.376 187.174 38.376C185.35 38.376 183.27 37.496 180.934 35.736C180.294 37.528 179.766 38.424 179.35 38.424C178.678 38.424 177.83 37.864 176.806 36.744C175.782 35.624 175.27 34.712 175.27 34.008C175.27 33.304 175.798 31 176.854 27.096C180.022 15.384 181.606 6.904 181.606 1.656C181.606 0.695995 182.07 0.215996 182.998 0.215996C183.734 0.215996 184.726 0.919995 185.974 2.328C187.222 3.704 187.846 5 187.846 6.216C187.846 9.064 187.03 13.496 185.398 19.512C189.046 15.64 191.99 13.704 194.23 13.704ZM186.454 32.856C188.214 32.856 190.006 31.48 191.83 28.728C193.686 25.976 194.614 23.272 194.614 20.616C194.614 20.424 194.566 20.312 194.47 20.28C194.406 20.216 194.198 20.184 193.846 20.184C192.086 20.184 190.198 21.24 188.182 23.352C186.198 25.464 184.438 28.104 182.902 31.272C184.246 32.328 185.43 32.856 186.454 32.856Z" fill="white" stroke="#9BA4B5" stroke-width="12" mask="url(#path-1-inside-1_13_8)" stroke-dasharray="0,0,0,1034.9874267578125"><animate attributeType="XML" attributeName="stroke-dasharray" repeatCount="indefinite" dur="5s" values="0,0,0,1034.9874267578125; 
          0,517.4937133789062,517.4937133789062,0; 
          1034.9874267578125,0,0,0" keyTimes="0; 0.5; 1" fill="freeze"/></path>
<setting>{"type":"direct","speed":14,"random":1,"shift":1,"size":1,"rupture":50}</setting></svg>
